<mxfile host="localhost" modified="2020-05-18T12:24:45.816Z" agent="5.0 (X11; Linux x86_64) AppleWebKit/537.36 (KHTML, like Gecko) Code/1.45.1 Chrome/78.0.3904.130 Electron/7.2.4 Safari/537.36" etag="4YKaC7e5p3RQJ09bUED6" version="13.0.9">
    <diagram id="YRDW1JudoWtudxzbDTvU" name="Page-1">
        <mxGraphModel dx="-909" dy="-465" grid="1" gridSize="10" guides="1" tooltips="1" connect="1" arrows="1" fold="1" page="1" pageScale="1" pageWidth="850" pageHeight="1100" math="0" shadow="0">
            <root>
                <mxCell id="0"/>
                <mxCell id="1" parent="0"/>
                <mxCell id="130" value="" style="rounded=1;whiteSpace=wrap;html=1;strokeColor=none;fillColor=#D9D9D9;fontColor=#333333;arcSize=4;" parent="1" vertex="1">
                    <mxGeometry x="1930" y="1105" width="610" height="865" as="geometry"/>
                </mxCell>
                <mxCell id="3" value="" style="endArrow=none;html=1;dashed=1;exitX=0.5;exitY=0;exitDx=0;exitDy=0;startArrow=classic;startFill=1;endFill=0;strokeColor=none;" parent="1" target="37" edge="1">
                    <mxGeometry width="50" height="50" relative="1" as="geometry">
                        <mxPoint x="2074.14" y="1575" as="sourcePoint"/>
                        <mxPoint x="2156.14" y="1525" as="targetPoint"/>
                    </mxGeometry>
                </mxCell>
                <mxCell id="4" value="" style="endArrow=none;html=1;dashed=1;exitX=0.5;exitY=0;exitDx=0;exitDy=0;startArrow=classic;startFill=1;endFill=0;strokeColor=none;" parent="1" target="36" edge="1">
                    <mxGeometry width="50" height="50" relative="1" as="geometry">
                        <mxPoint x="2074.14" y="1575" as="sourcePoint"/>
                        <mxPoint x="2087.628888888889" y="1520" as="targetPoint"/>
                    </mxGeometry>
                </mxCell>
                <mxCell id="5" value="" style="endArrow=none;html=1;dashed=1;exitX=0.5;exitY=0;exitDx=0;exitDy=0;startArrow=classic;startFill=1;endFill=0;strokeColor=none;" parent="1" target="35" edge="1">
                    <mxGeometry width="50" height="50" relative="1" as="geometry">
                        <mxPoint x="2074.14" y="1575" as="sourcePoint"/>
                        <mxPoint x="2090.8971428571426" y="1515" as="targetPoint"/>
                    </mxGeometry>
                </mxCell>
                <mxCell id="6" value="" style="endArrow=none;html=1;dashed=1;exitX=0.5;exitY=0;exitDx=0;exitDy=0;startArrow=classic;startFill=1;endFill=0;strokeColor=none;" parent="1" target="33" edge="1">
                    <mxGeometry width="50" height="50" relative="1" as="geometry">
                        <mxPoint x="2074.14" y="1575" as="sourcePoint"/>
                        <mxPoint x="2094.2848275862066" y="1510" as="targetPoint"/>
                    </mxGeometry>
                </mxCell>
                <mxCell id="7" value="" style="endArrow=none;html=1;dashed=1;exitX=0.5;exitY=0;exitDx=0;exitDy=0;startArrow=classic;startFill=1;endFill=0;strokeColor=none;" parent="1" target="34" edge="1">
                    <mxGeometry width="50" height="50" relative="1" as="geometry">
                        <mxPoint x="2074.14" y="1575" as="sourcePoint"/>
                        <mxPoint x="2101.372258064516" y="1500" as="targetPoint"/>
                    </mxGeometry>
                </mxCell>
                <mxCell id="8" value="" style="endArrow=none;html=1;dashed=1;exitX=0.5;exitY=0;exitDx=0;exitDy=0;startArrow=classic;startFill=1;endFill=0;strokeColor=none;" parent="1" target="32" edge="1">
                    <mxGeometry width="50" height="50" relative="1" as="geometry">
                        <mxPoint x="2074.14" y="1575" as="sourcePoint"/>
                        <mxPoint x="2097.78" y="1505" as="targetPoint"/>
                    </mxGeometry>
                </mxCell>
                <mxCell id="9" value="" style="endArrow=none;html=1;dashed=1;exitX=0.5;exitY=0;exitDx=0;exitDy=0;startArrow=classic;startFill=1;endFill=0;strokeColor=none;" parent="1" target="31" edge="1">
                    <mxGeometry width="50" height="50" relative="1" as="geometry">
                        <mxPoint x="2074.14" y="1575" as="sourcePoint"/>
                        <mxPoint x="2121.9825" y="1485" as="targetPoint"/>
                    </mxGeometry>
                </mxCell>
                <mxCell id="10" value="" style="endArrow=none;html=1;dashed=1;exitX=0.5;exitY=0;exitDx=0;exitDy=0;startArrow=classic;startFill=1;endFill=0;strokeColor=none;" parent="1" target="30" edge="1">
                    <mxGeometry width="50" height="50" relative="1" as="geometry">
                        <mxPoint x="2074.14" y="1575" as="sourcePoint"/>
                        <mxPoint x="2108.8127272727274" y="1490" as="targetPoint"/>
                    </mxGeometry>
                </mxCell>
                <mxCell id="11" value="&lt;div style=&quot;font-size: 24px&quot;&gt;&lt;span style=&quot;font-size: 24px&quot;&gt;&lt;font style=&quot;font-size: 24px&quot;&gt;Input&lt;br&gt;pre-processing&lt;br style=&quot;font-size: 24px&quot;&gt;&lt;/font&gt;&lt;/span&gt;&lt;/div&gt;" style="rounded=1;whiteSpace=wrap;html=1;strokeColor=none;fillColor=#A4CCCD;fontSize=24;fontStyle=1;fontColor=#000000;" parent="1" vertex="1">
                    <mxGeometry x="1954.14" y="1185" width="240" height="100" as="geometry"/>
                </mxCell>
                <mxCell id="12" style="edgeStyle=orthogonalEdgeStyle;rounded=0;orthogonalLoop=1;jettySize=auto;html=1;exitX=0.5;exitY=1;exitDx=0;exitDy=0;dashed=1;startArrow=none;startFill=0;endArrow=none;endFill=0;strokeColor=#6c8ebf;fillColor=#dae8fc;fontColor=#000000;" parent="1" source="14" target="29" edge="1">
                    <mxGeometry relative="1" as="geometry"/>
                </mxCell>
                <mxCell id="13" style="edgeStyle=orthogonalEdgeStyle;rounded=0;orthogonalLoop=1;jettySize=auto;html=1;entryX=0.5;entryY=0;entryDx=0;entryDy=0;endArrow=classic;endFill=1;fontSize=24;fontColor=#000000;dashed=1;strokeColor=#000000;" parent="1" source="14" target="29" edge="1">
                    <mxGeometry relative="1" as="geometry"/>
                </mxCell>
                <mxCell id="14" value="&lt;div&gt;&lt;font style=&quot;font-size: 24px&quot;&gt;&lt;span style=&quot;font-size: 24px&quot;&gt;&lt;font style=&quot;font-size: 24px&quot;&gt;Autodownload&lt;br&gt; databases&lt;/font&gt;&lt;/span&gt;&lt;/font&gt;&lt;br&gt;&lt;/div&gt;" style="rounded=1;whiteSpace=wrap;html=1;strokeColor=none;fillColor=#A4CCCD;fontSize=24;fontStyle=1;fontColor=#000000;" parent="1" vertex="1">
                    <mxGeometry x="2267.65" y="1185" width="240" height="100" as="geometry"/>
                </mxCell>
                <mxCell id="15" style="edgeStyle=orthogonalEdgeStyle;rounded=0;orthogonalLoop=1;jettySize=auto;html=1;dashed=1;strokeColor=#000000;" parent="1" source="16" target="11" edge="1">
                    <mxGeometry relative="1" as="geometry"/>
                </mxCell>
                <mxCell id="16" value="&lt;div&gt;&lt;span style=&quot;font-size: 24px&quot;&gt;&lt;font style=&quot;font-size: 24px&quot;&gt;Sequence&lt;br&gt;Input&lt;/font&gt;&lt;/span&gt;&lt;span style=&quot;font-weight: normal&quot;&gt;&lt;font style=&quot;font-size: 24px&quot;&gt;&lt;br&gt;&lt;/font&gt;&lt;font style=&quot;font-size: 18px&quot;&gt;fasta&lt;/font&gt;&lt;/span&gt;&lt;span style=&quot;font-size: 24px&quot;&gt;&lt;font style=&quot;font-size: 24px&quot;&gt;&lt;br style=&quot;font-size: 24px&quot;&gt;&lt;/font&gt;&lt;/span&gt;&lt;/div&gt;" style="rounded=1;whiteSpace=wrap;html=1;strokeColor=#FFC526;fillColor=#FFC526;fontSize=24;fontStyle=1;fontColor=#000000;" parent="1" vertex="1">
                    <mxGeometry x="1730" y="1190" width="149" height="90" as="geometry"/>
                </mxCell>
                <mxCell id="17" value="" style="edgeStyle=orthogonalEdgeStyle;rounded=0;orthogonalLoop=1;jettySize=auto;html=1;dashed=1;strokeColor=none;" parent="1" edge="1">
                    <mxGeometry relative="1" as="geometry">
                        <mxPoint x="2194.14" y="1625.0000000000005" as="sourcePoint"/>
                        <mxPoint x="2267.65" y="1600" as="targetPoint"/>
                    </mxGeometry>
                </mxCell>
                <mxCell id="18" value="" style="edgeStyle=orthogonalEdgeStyle;rounded=0;orthogonalLoop=1;jettySize=auto;html=1;fontSize=24;strokeColor=none;" parent="1" edge="1">
                    <mxGeometry relative="1" as="geometry">
                        <mxPoint x="2194.14" y="1625.0000000000005" as="sourcePoint"/>
                        <mxPoint x="2079.2" y="1625" as="targetPoint"/>
                    </mxGeometry>
                </mxCell>
                <mxCell id="136" style="edgeStyle=orthogonalEdgeStyle;rounded=0;orthogonalLoop=1;jettySize=auto;html=1;entryX=0;entryY=0.5;entryDx=0;entryDy=0;dashed=1;strokeColor=#000000;" parent="1" source="24" target="47" edge="1">
                    <mxGeometry relative="1" as="geometry"/>
                </mxCell>
                <mxCell id="24" value="&lt;font style=&quot;font-size: 24px&quot;&gt;&lt;b style=&quot;font-size: 24px&quot;&gt;Phage&lt;br&gt;positive&lt;br&gt;contigs&lt;/b&gt;&lt;/font&gt;" style="rounded=1;whiteSpace=wrap;html=1;strokeColor=none;fillColor=#89909F;fontSize=24;fontColor=#000000;" parent="1" vertex="1">
                    <mxGeometry x="1730" y="1795" width="160" height="100" as="geometry"/>
                </mxCell>
                <mxCell id="26" style="edgeStyle=orthogonalEdgeStyle;rounded=0;orthogonalLoop=1;jettySize=auto;html=1;entryX=0;entryY=0.5;entryDx=0;entryDy=0;dashed=1;startArrow=none;startFill=0;endArrow=classic;endFill=1;strokeColor=#000000;" parent="1" source="27" target="39" edge="1">
                    <mxGeometry relative="1" as="geometry"/>
                </mxCell>
                <mxCell id="27" value="Tool control" style="rounded=1;whiteSpace=wrap;html=1;fontSize=24;fontStyle=1;fontColor=#333333;fillColor=#D9D9D9;strokeColor=none;" parent="1" vertex="1">
                    <mxGeometry x="1730" y="1415" width="157.92" height="100" as="geometry"/>
                </mxCell>
                <mxCell id="28" value="" style="endArrow=none;html=1;dashed=1;exitX=0.5;exitY=0;exitDx=0;exitDy=0;startArrow=classic;startFill=1;endFill=0;entryX=0.5;entryY=1;entryDx=0;entryDy=0;strokeColor=none;" parent="1" target="39" edge="1">
                    <mxGeometry width="50" height="50" relative="1" as="geometry">
                        <mxPoint x="2074.14" y="1575" as="sourcePoint"/>
                        <mxPoint x="2089.14" y="1520" as="targetPoint"/>
                    </mxGeometry>
                </mxCell>
                <mxCell id="29" value="&lt;font style=&quot;font-size: 24px;&quot;&gt;&lt;span style=&quot;font-size: 24px;&quot;&gt;&lt;font style=&quot;font-size: 24px;&quot;&gt;Databases&lt;/font&gt;&lt;/span&gt;&lt;/font&gt;" style="rounded=1;whiteSpace=wrap;html=1;strokeColor=none;fillColor=#A4CCCD;fontSize=24;fontStyle=1;fontColor=#000000;" parent="1" vertex="1">
                    <mxGeometry x="2267.65" y="1415" width="240" height="100" as="geometry"/>
                </mxCell>
                <mxCell id="30" value="" style="rounded=1;whiteSpace=wrap;html=1;strokeColor=#7BBEC2;fillColor=#A4CCCD;fontColor=#000000;" parent="1" vertex="1">
                    <mxGeometry x="1994.14" y="1375" width="240" height="100" as="geometry"/>
                </mxCell>
                <mxCell id="31" value="" style="rounded=1;whiteSpace=wrap;html=1;strokeColor=#7BBEC2;fillColor=#A4CCCD;fontColor=#000000;" parent="1" vertex="1">
                    <mxGeometry x="1989.14" y="1380" width="240" height="100" as="geometry"/>
                </mxCell>
                <mxCell id="32" value="" style="rounded=1;whiteSpace=wrap;html=1;strokeColor=#7BBEC2;fillColor=#A4CCCD;fontColor=#000000;" parent="1" vertex="1">
                    <mxGeometry x="1984.14" y="1385" width="240" height="100" as="geometry"/>
                </mxCell>
                <mxCell id="33" value="" style="rounded=1;whiteSpace=wrap;html=1;strokeColor=#7BBEC2;fillColor=#A4CCCD;fontColor=#000000;" parent="1" vertex="1">
                    <mxGeometry x="1979.14" y="1390" width="240" height="100" as="geometry"/>
                </mxCell>
                <mxCell id="34" value="" style="rounded=1;whiteSpace=wrap;html=1;strokeColor=#7BBEC2;fillColor=#A4CCCD;fontColor=#000000;" parent="1" vertex="1">
                    <mxGeometry x="1974.14" y="1395" width="240" height="100" as="geometry"/>
                </mxCell>
                <mxCell id="35" value="" style="rounded=1;whiteSpace=wrap;html=1;strokeColor=#7BBEC2;fillColor=#A4CCCD;fontColor=#000000;" parent="1" vertex="1">
                    <mxGeometry x="1969.14" y="1400" width="240" height="100" as="geometry"/>
                </mxCell>
                <mxCell id="36" value="" style="rounded=1;whiteSpace=wrap;html=1;strokeColor=#7BBEC2;fillColor=#A4CCCD;fontColor=#000000;" parent="1" vertex="1">
                    <mxGeometry x="1964.14" y="1405" width="240" height="100" as="geometry"/>
                </mxCell>
                <mxCell id="37" value="&lt;div&gt;10&lt;/div&gt;&lt;div&gt;&lt;br&gt;&lt;/div&gt;" style="rounded=1;whiteSpace=wrap;html=1;strokeColor=#7BBEC2;fillColor=#A4CCCD;fontColor=#000000;" parent="1" vertex="1">
                    <mxGeometry x="1959.14" y="1410" width="240" height="100" as="geometry"/>
                </mxCell>
                <mxCell id="128" style="edgeStyle=none;curved=1;orthogonalLoop=1;jettySize=auto;html=1;dashed=1;startArrow=classic;startFill=1;endArrow=none;endFill=0;strokeColor=#000000;" parent="1" source="126" target="39" edge="1">
                    <mxGeometry relative="1" as="geometry"/>
                </mxCell>
                <mxCell id="39" value="&lt;font style=&quot;font-size: 24px&quot;&gt;&lt;span style=&quot;font-size: 24px&quot;&gt;Multiple phage-&lt;br&gt; identification tools&lt;/span&gt;&lt;/font&gt;" style="rounded=1;whiteSpace=wrap;html=1;strokeColor=none;fillColor=#A4CCCD;fontSize=24;fontStyle=1;fontColor=#000000;" parent="1" vertex="1">
                    <mxGeometry x="1954.14" y="1415" width="240" height="100" as="geometry"/>
                </mxCell>
                <mxCell id="40" value="&lt;b style=&quot;font-size: 24px;&quot;&gt;&lt;font style=&quot;font-size: 24px;&quot;&gt;Input&lt;/font&gt;&lt;/b&gt;" style="rounded=1;whiteSpace=wrap;html=1;fillColor=#FFC526;fontSize=24;strokeColor=#FFC526;fontColor=#000000;" parent="1" vertex="1">
                    <mxGeometry x="2020.07" y="2000" width="110" height="30" as="geometry"/>
                </mxCell>
                <mxCell id="41" value="&lt;font style=&quot;font-size: 24px;&quot;&gt;&lt;b style=&quot;font-size: 24px;&quot;&gt;Process&lt;/b&gt;&lt;/font&gt;" style="rounded=1;whiteSpace=wrap;html=1;fillColor=#A4CCCD;fontSize=24;strokeColor=none;fontColor=#000000;" parent="1" vertex="1">
                    <mxGeometry x="2170.07" y="2000" width="115" height="30" as="geometry"/>
                </mxCell>
                <mxCell id="42" value="&lt;font style=&quot;font-size: 24px;&quot;&gt;&lt;span style=&quot;font-size: 24px;&quot;&gt;Output&lt;/span&gt;&lt;/font&gt;" style="rounded=1;whiteSpace=wrap;html=1;fillColor=#89909F;fontSize=24;strokeColor=none;fontColor=#000000;fontStyle=1" parent="1" vertex="1">
                    <mxGeometry x="2330.07" y="2000" width="115" height="30" as="geometry"/>
                </mxCell>
                <mxCell id="43" style="edgeStyle=orthogonalEdgeStyle;rounded=0;orthogonalLoop=1;jettySize=auto;html=1;exitX=0;exitY=0.5;exitDx=0;exitDy=0;endArrow=classic;endFill=1;fontSize=24;fontColor=#000000;dashed=1;strokeColor=#000000;" parent="1" source="29" target="39" edge="1">
                    <mxGeometry relative="1" as="geometry"/>
                </mxCell>
                <mxCell id="44" style="edgeStyle=orthogonalEdgeStyle;rounded=0;orthogonalLoop=1;jettySize=auto;html=1;endArrow=classic;endFill=1;fontSize=24;fontColor=#000000;dashed=1;entryX=0.5;entryY=0;entryDx=0;entryDy=0;strokeColor=#000000;" parent="1" source="11" target="39" edge="1">
                    <mxGeometry relative="1" as="geometry">
                        <mxPoint x="2074" y="1405" as="targetPoint"/>
                    </mxGeometry>
                </mxCell>
                <mxCell id="123" value="" style="edgeStyle=none;curved=1;orthogonalLoop=1;jettySize=auto;html=1;dashed=1;startArrow=classic;startFill=1;endArrow=none;endFill=0;strokeColor=#000000;" parent="1" source="122" target="47" edge="1">
                    <mxGeometry relative="1" as="geometry"/>
                </mxCell>
                <mxCell id="47" value="&lt;b&gt;Annotation&lt;/b&gt;&lt;br&gt;&lt;font style=&quot;font-size: 18px&quot;&gt;HMMER+pVOG-DB&lt;/font&gt;" style="rounded=1;whiteSpace=wrap;html=1;strokeColor=none;fillColor=#A4CCCD;fontSize=24;fontColor=#000000;" parent="1" vertex="1">
                    <mxGeometry x="1954.14" y="1795" width="240" height="100" as="geometry"/>
                </mxCell>
                <mxCell id="122" value="&lt;b&gt;Chromomap&lt;/b&gt;" style="rounded=1;whiteSpace=wrap;html=1;strokeColor=none;fillColor=#89909F;fontSize=24;fontColor=#000000;" parent="1" vertex="1">
                    <mxGeometry x="2274.1400000000003" y="1795" width="240" height="100" as="geometry"/>
                </mxCell>
                <mxCell id="101" value="&lt;b&gt;&lt;font style=&quot;font-size: 30px&quot;&gt;Identification&lt;/font&gt;&lt;/b&gt;" style="text;html=1;align=center;verticalAlign=middle;resizable=0;points=[];autosize=1;fontColor=#000000;" parent="1" vertex="1">
                    <mxGeometry x="2135" y="1125" width="200" height="20" as="geometry"/>
                </mxCell>
                <mxCell id="102" value="&lt;b&gt;&lt;font style=&quot;font-size: 30px&quot;&gt;Annotation&lt;/font&gt;&lt;/b&gt;" style="text;html=1;align=center;verticalAlign=middle;resizable=0;points=[];autosize=1;fontColor=#000000;" parent="1" vertex="1">
                    <mxGeometry x="2147.57" y="1745" width="170" height="20" as="geometry"/>
                </mxCell>
                <mxCell id="109" value="" style="curved=1;endArrow=classic;html=1;exitX=0.5;exitY=1;exitDx=0;exitDy=0;entryX=0.5;entryY=0;entryDx=0;entryDy=0;dashed=1;strokeColor=#000000;" parent="1" source="39" target="24" edge="1">
                    <mxGeometry width="50" height="50" relative="1" as="geometry">
                        <mxPoint x="1940" y="1545" as="sourcePoint"/>
                        <mxPoint x="1890" y="1595" as="targetPoint"/>
                        <Array as="points">
                            <mxPoint x="1800" y="1550"/>
                        </Array>
                    </mxGeometry>
                </mxCell>
                <mxCell id="126" value="&lt;b&gt;Summary&lt;/b&gt;" style="rounded=1;whiteSpace=wrap;html=1;strokeColor=none;fillColor=#89909F;fontSize=24;fontColor=#000000;" parent="1" vertex="1">
                    <mxGeometry x="1954.1400000000003" y="1585" width="240" height="100" as="geometry"/>
                </mxCell>
                <mxCell id="127" value="&lt;b&gt;Raw tool output&lt;/b&gt;" style="rounded=1;whiteSpace=wrap;html=1;strokeColor=none;fillColor=#89909F;fontSize=24;fontColor=#000000;" parent="1" vertex="1">
                    <mxGeometry x="2267.6500000000005" y="1585" width="240" height="100" as="geometry"/>
                </mxCell>
                <mxCell id="129" value="" style="curved=1;endArrow=classic;html=1;dashed=1;exitX=0.5;exitY=1;exitDx=0;exitDy=0;entryX=0.5;entryY=0;entryDx=0;entryDy=0;strokeColor=#000000;" parent="1" source="39" target="127" edge="1">
                    <mxGeometry width="50" height="50" relative="1" as="geometry">
                        <mxPoint x="2220" y="1595" as="sourcePoint"/>
                        <mxPoint x="2270" y="1545" as="targetPoint"/>
                        <Array as="points">
                            <mxPoint x="2190" y="1550"/>
                            <mxPoint x="2388" y="1535"/>
                        </Array>
                    </mxGeometry>
                </mxCell>
            </root>
        </mxGraphModel>
    </diagram>
</mxfile>